<svg xmlns="http://www.w3.org/2000/svg" viewBox="0 0 1200 120" preserveAspectRatio="none">
  <rect x="0" y="0" width="1920" height="64" fill="#fff"></rect>
  <path d="M0 24L20 21.5C40 19 80 14 120 20C160 26 200 43 240 43.2C280 43.3 320 26.7 360 22.8C400 19 440 28 480 33C520 38 560 39 600 36.3C640 33.7 680 27.3 720 27C760 26.7 800 32.3 840 34.8C880 37.3 920 36.7 960 40.2C1000 43.7 1040 51.3 1080 49.5C1120 47.7 1160 36.3 1200 35.2C1240 34 1280 43 1320 41.2C1360 39.3 1400 26.7 1440 25.8C1480 25 1520 36 1560 36.8C1600 37.7 1640 28.3 1680 21.3C1720 14.3 1760 9.7 1800 9.2C1840 8.7 1880 12.3 1900 14.2L1920 16L1920 0L1900 0C1880 0 1840 0 1800 0C1760 0 1720 0 1680 0C1640 0 1600 0 1560 0C1520 0 1480 0 1440 0C1400 0 1360 0 1320 0C1280 0 1240 0 1200 0C1160 0 1120 0 1080 0C1040 0 1000 0 960 0C920 0 880 0 840 0C800 0 760 0 720 0C680 0 640 0 600 0C560 0 520 0 480 0C440 0 400 0 360 0C320 0 280 0 240 0C200 0 160 0 120 0C80 0 40 0 20 0L0 0Z" fill="#1d2737" stroke-linecap="round" stroke-linejoin="miter"></path>
</svg>