<svg id="wave" style="transform:rotate(180deg); transition: 0.3s" viewBox="0 0 1440 100" version="1.1" xmlns="http://www.w3.org/2000/svg">
  <defs>
    <linearGradient id="sw-gradient-0" x1="0" x2="0" y1="1" y2="0">
      <stop stop-color="rgba(29, 39, 55, 1)" offset="0%"></stop>
      <stop stop-color="rgba(29, 39, 55, 1)" offset="100%"></stop>
    </linearGradient>
  </defs>
  <path style="transform:translate(0, 0px); opacity:1" fill="url(#sw-gradient-0)" d="M0,40L16,43.3C32,47,64,53,96,46.7C128,40,160,20,192,23.3C224,27,256,53,288,63.3C320,73,352,67,384,56.7C416,47,448,33,480,28.3C512,23,544,27,576,33.3C608,40,640,50,672,55C704,60,736,60,768,53.3C800,47,832,33,864,26.7C896,20,928,20,960,23.3C992,27,1024,33,1056,40C1088,47,1120,53,1152,51.7C1184,50,1216,40,1248,45C1280,50,1312,70,1344,71.7C1376,73,1408,57,1440,51.7C1472,47,1504,53,1536,46.7C1568,40,1600,20,1632,23.3C1664,27,1696,53,1728,65C1760,77,1792,73,1824,61.7C1856,50,1888,30,1920,21.7C1952,13,1984,17,2016,25C2048,33,2080,47,2112,43.3C2144,40,2176,20,2208,10C2240,0,2272,0,2288,0L2304,0L2304,100L2288,100C2272,100,2240,100,2208,100C2176,100,2144,100,2112,100C2080,100,2048,100,2016,100C1984,100,1952,100,1920,100C1888,100,1856,100,1824,100C1792,100,1760,100,1728,100C1696,100,1664,100,1632,100C1600,100,1568,100,1536,100C1504,100,1472,100,1440,100C1408,100,1376,100,1344,100C1312,100,1280,100,1248,100C1216,100,1184,100,1152,100C1120,100,1088,100,1056,100C1024,100,992,100,960,100C928,100,896,100,864,100C832,100,800,100,768,100C736,100,704,100,672,100C640,100,608,100,576,100C544,100,512,100,480,100C448,100,416,100,384,100C352,100,320,100,288,100C256,100,224,100,192,100C160,100,128,100,96,100C64,100,32,100,16,100L0,100Z"></path>
</svg>